HIERARCHY
ROOT RootJoint
{
    OFFSET   0.000000   0.000000   0.000000
    CHANNELS 6 Xposition Yposition Zposition Xrotation Yrotation Zrotation
    JOINT pelvis_lowerback
    {
        OFFSET   0.000000   0.093605   0.000000
        CHANNELS 3 Xrotation Yrotation Zrotation
        JOINT lowerback_torso
        {
            OFFSET   0.000000   0.100000   0.000000
            CHANNELS 3 Xrotation Yrotation Zrotation
            JOINT torso_head
            {
                OFFSET   0.000000   0.282350   0.000000
                CHANNELS 3 Xrotation Yrotation Zrotation
                End Site
                {
                    OFFSET   0.000000   0.192650   0.000000
                }
            }
            JOINT rTorso_Clavicle
            {
                OFFSET  -0.001000   0.157500   0.000000
                CHANNELS 3 Xrotation Yrotation Zrotation
                JOINT rShoulder
                {
                    OFFSET  -0.117647   0.000000   0.000000
                    CHANNELS 3 Xrotation Yrotation Zrotation
                    JOINT rElbow
                    {
                        OFFSET  -0.245000   0.000000   0.000000
                        CHANNELS 3 Xrotation Yrotation Zrotation
                        JOINT rWrist
                        {
                            OFFSET  -0.240000   0.000000   0.000000
                            CHANNELS 3 Xrotation Yrotation Zrotation
                            End Site
                            {
                                OFFSET  -0.116353  -0.002500   0.000000
                            }
                        }
                    }
                }
            }
            JOINT lTorso_Clavicle
            {
                OFFSET   0.001000   0.157500   0.000000
                CHANNELS 3 Xrotation Yrotation Zrotation
                JOINT lShoulder
                {
                    OFFSET   0.117647   0.000000   0.000000
                    CHANNELS 3 Xrotation Yrotation Zrotation
                    JOINT lElbow
                    {
                        OFFSET   0.245000   0.000000   0.000000
                        CHANNELS 3 Xrotation Yrotation Zrotation
                        JOINT lWrist
                        {
                            OFFSET   0.240000   0.000000   0.000000
                            CHANNELS 3 Xrotation Yrotation Zrotation
                            End Site
                            {
                                OFFSET   0.116353  -0.002500   0.000000
                            }
                        }
                    }
                }
            }
        }
    }
    JOINT rHip
    {
        OFFSET  -0.100000  -0.051395   0.000000
        CHANNELS 3 Xrotation Yrotation Zrotation
        JOINT rKnee
        {
            OFFSET   0.000000  -0.410000   0.000000
            CHANNELS 3 Xrotation Yrotation Zrotation
            JOINT rAnkle
            {
                OFFSET   0.000000  -0.390000   0.000000
                CHANNELS 3 Xrotation Yrotation Zrotation
                JOINT rToeJoint
                {
                    OFFSET   0.000000  -0.050000   0.130000
                    CHANNELS 3 Xrotation Yrotation Zrotation
                    End Site
                    {
                        OFFSET  -0.010000   0.002000   0.060000
                    }
                }
            }
        }
    }
    JOINT lHip
    {
        OFFSET   0.100000  -0.051395   0.000000
        CHANNELS 3 Xrotation Yrotation Zrotation
        JOINT lKnee
        {
            OFFSET   0.000000  -0.410000   0.000000
            CHANNELS 3 Xrotation Yrotation Zrotation
            JOINT lAnkle
            {
                OFFSET   0.000000  -0.390000   0.000000
                CHANNELS 3 Xrotation Yrotation Zrotation
                JOINT lToeJoint
                {
                    OFFSET   0.000000  -0.050000   0.130000
                    CHANNELS 3 Xrotation Yrotation Zrotation
                    End Site
                    {
                        OFFSET   0.010000   0.002000   0.060000
                    }
                }
            }
        }
    }
}
MOTION
Frames: 14
Frame Time:   0.008333
 -2.272297   0.854084   4.010948  -2.067306 -15.698199  -6.315574  11.039840   4.354086  -2.485893   1.437767   2.380486   0.366825  -0.471634   2.477182   2.573129  -2.796262   6.011978  -2.457447 -14.996632  16.238075  45.377082 -179.999060  53.801643 -179.999746  -4.450943   9.611333   4.804302  -4.584235   0.124585   2.211673 -27.467989   8.048264 -37.633902 179.997282 -62.581051 179.996816  -5.524417 -10.608159  10.693487  -5.835746 -15.669714 -19.439663  25.397548  -0.000064  -0.000182  -3.541829  -4.523151   6.669080 -15.864706  -0.000014   0.000095 -27.003277   6.619745  22.508197  44.792560  -0.000145  -0.000035 -16.223011   5.788155  -2.617046   0.959575   0.000017   0.000004
 -2.272582   0.853887   4.010936  -2.123141 -15.731078  -6.357755  11.065865   4.360718  -2.488017   1.478327   2.372813   0.383075  -0.457232   2.495097   2.587396  -2.761798   5.998974  -2.522043 -15.007607  16.154769  45.216649 -179.999033  53.947595 -179.999713  -4.454680   9.637856   4.840704  -4.578146   0.127769   2.298310 -27.452155   8.092114 -37.591542 179.997768 -62.542772 179.997424  -5.532118 -10.628701  10.600587  -5.821777 -15.635242 -19.404167  25.509075  -0.000071  -0.000152  -3.654804  -4.536792   6.646129 -15.791996  -0.000008   0.000065 -26.968440   6.590151  22.561137  44.864566  -0.000140  -0.000043 -16.275584   5.823667  -2.601923   0.997297  -0.000001   0.000004
 -2.272892   0.853718   4.010874  -2.170115 -15.764841  -6.393918  11.094565   4.367952  -2.487873   1.516496   2.366781   0.397553  -0.443373   2.512669   2.599394  -2.731694   5.984891  -2.588617 -15.018597  16.073711  45.061643 -179.999023  54.089198 -179.999698  -4.456088   9.638256   4.863847  -4.578867   0.131798   2.387417 -27.444659   8.134481 -37.545937 179.998167 -62.511867 179.997918  -5.542068 -10.629179  10.547195  -5.814419 -15.603278 -19.367907  25.609192  -0.000079  -0.000128  -3.767638  -4.552885   6.626278 -15.706055  -0.000008   0.000037 -26.937607   6.562633  22.610540  44.919822  -0.000131  -0.000046 -16.314788   5.859941  -2.585097   1.030074  -0.000014   0.000004
 -2.273221   0.853574   4.010780  -2.211168 -15.798807  -6.426330  11.124048   4.375247  -2.484043   1.553602   2.361694   0.412902  -0.429579   2.529187   2.610331  -2.704353   5.970729  -2.653367 -15.029214  15.997151  44.915052 -179.999045  54.222354 -179.999695  -4.456545   9.629304   4.882111  -4.581295   0.136554   2.474057 -27.439673   8.174134 -37.501216 179.998488 -62.483440 179.998314  -5.552134 -10.625148  10.508060  -5.811283 -15.573963 -19.331206  25.701113  -0.000085  -0.000108  -3.876925  -4.568148   6.609871 -15.616937  -0.000013   0.000012 -26.908792   6.537388  22.658213  44.961909  -0.000119  -0.000046 -16.343880   5.895487  -2.568001   1.363737  -0.000148   0.000009
 -2.273567   0.853450   4.010664  -2.247596 -15.831951  -6.455487  11.153351   4.382050  -2.476268   1.589684   2.357026   0.429852  -0.416100   2.544643   2.620663  -2.679037   5.956925  -2.714739 -15.039281  15.925339  44.777579 -179.999094  54.346840 -179.999698  -4.456745   9.618098   4.898381  -4.584116   0.141416   2.556317 -27.435673   8.211088 -37.458724 179.998745 -62.456804 179.998630  -5.561757 -10.620847  10.473615  -5.810594 -15.546086 -19.294688  25.786561  -0.000089  -0.000091  -3.982608  -4.581404   6.595997 -15.528681  -0.000021  -0.000006 -26.881429   6.514005  22.703908  44.993637  -0.000106  -0.000043 -16.365576   5.929764  -2.548602   1.328363  -0.000103   0.000006
 -2.273925   0.853341   4.010535  -2.280036 -15.863596  -6.481486  11.181850   4.388094  -2.464556   1.624493   2.352439   0.448563  -0.403135   2.559085   2.630559  -2.655368   5.943615  -2.772241 -15.048708  15.858115  44.649093 -179.999163  54.463040 -179.999704  -4.456912   9.606845   4.913583  -4.586922   0.146013   2.633588 -27.432140   8.245459 -37.418915 179.998953 -62.431771 179.998883  -5.570877 -10.617044  10.440795  -5.811426 -15.518974 -19.258979  25.866617  -0.000091  -0.000076  -4.085043  -4.592285   6.584277 -15.442999  -0.000029  -0.000017 -26.855247   6.492125  22.747464  45.016813  -0.000093  -0.000038 -16.381062   5.962428  -2.529063   1.302422  -0.000071   0.000004
 -2.274293   0.853245   4.010399  -2.308961 -15.893452  -6.504451  11.209198   4.393323  -2.449038   1.657808   2.347787   0.469049  -0.390800   2.572573   2.640101  -2.633131   5.930845  -2.825804 -15.057469  15.795222  44.529188 -179.999245  54.571463 -179.999711  -4.457109   9.596183   4.928034  -4.589588   0.150177   2.705810 -27.428887   8.277385 -37.381866 179.999121 -62.408231 179.999086  -5.579518 -10.613838  10.408642  -5.813316 -15.492513 -19.224469  25.942072  -0.000091  -0.000063  -4.184408  -4.600967   6.574560 -15.360600  -0.000037  -0.000023 -26.830081   6.471659  22.788780  45.032828  -0.000080  -0.000033 -16.391504   5.993293  -2.509719   1.283931  -0.000049   0.000003
 -2.274705   0.853239   4.010159  -2.334608 -15.935863  -6.514774  11.263264   4.407751  -2.449171   1.679405   2.347383   0.483070  -0.392798   2.587540   2.649418  -2.611971   5.921387  -2.905388 -15.089121  15.748501  44.410555 -179.999215  54.710409 -179.999754  -4.456651   9.608146   4.946048  -4.610102   0.146768   2.784336 -27.502518   8.345015 -37.312286 179.999323 -62.451751 179.999241  -5.585906 -10.637297  10.353617  -5.837300 -15.448749 -19.198519  26.030067  -0.000099  -0.000050  -4.253981  -4.604085   6.571115 -15.322712  -0.000039  -0.000022 -26.788652   6.464975  22.821560  45.001054  -0.000051  -0.000019 -16.368150   6.033132  -2.510469   1.267743  -0.000034   0.000002
 -2.275167   0.853281   4.009873  -2.350347 -15.973480  -6.521339  11.316824   4.422658  -2.449265   1.698492   2.349229   0.495203  -0.393698   2.601500   2.658007  -2.597090   5.914419  -2.990820 -15.122113  15.705554  44.293721 -179.999178  54.843116 -179.999810  -4.454712   9.604520   4.960168  -4.636934   0.144072   2.869622 -27.580122   8.408938 -37.239252 179.999488 -62.498575 179.999358  -5.595063 -10.634716  10.341174  -5.866230 -15.407926 -19.167945  26.109333  -0.000105  -0.000036  -4.313094  -4.605721   6.566990 -15.296514  -0.000039  -0.000019 -26.749741   6.457674  22.852824  44.945792  -0.000019  -0.000004 -16.328883   6.070393  -2.507500   1.257587  -0.000024   0.000002
 -2.275669   0.853350   4.009566  -2.359208 -16.005721  -6.525135  11.367533   4.438203  -2.447418   1.715837   2.352554   0.507026  -0.393462   2.614587   2.665730  -2.585717   5.908383  -3.075939 -15.154750  15.665868  44.181882 -179.999162  54.967240 -179.999866  -4.452401   9.597018   4.971291  -4.664449   0.142259   2.955152 -27.655517   8.468062 -37.167785 179.999621 -62.542739 179.999454  -5.604608 -10.626365  10.342862  -5.895617 -15.369714 -19.134171  26.180957  -0.000107  -0.000022  -4.368623  -4.605637   6.563601 -15.275275  -0.000038  -0.000015 -26.713146   6.448902  22.883010  44.876427   0.000013   0.000010 -16.280213   6.104554  -2.501762   1.252242  -0.000017   0.000001
 -2.276204   0.853434   4.009250  -2.363607 -16.033809  -6.526702  11.415063   4.454495  -2.442801   1.731759   2.357204   0.519195  -0.392644   2.626882   2.672839  -2.576459   5.903134  -3.158068 -15.186290  15.629188  44.076174 -179.999169  55.083027 -179.999914  -4.450131   9.589581   4.980590  -4.691028   0.141274   3.037568 -27.727012   8.523025 -37.099638 179.999726 -62.583703 179.999534  -5.613644 -10.618378  10.348794  -5.924685 -15.334835 -19.098718  26.247367  -0.000107  -0.000009  -4.424018  -4.605000   6.562082 -15.254054  -0.000038  -0.000012 -26.677975   6.439297  22.912419  44.798408   0.000042   0.000020 -16.226064   6.135985  -2.494134   1.250681  -0.000013   0.000001
 -2.276763   0.853525   4.008935  -2.365034 -16.058798  -6.526372  11.459374   4.471366  -2.434943   1.746431   2.362980   0.532131  -0.391577   2.638429   2.679534  -2.568564   5.898618  -3.236067 -15.216378  15.595274  43.976877 -179.999199  55.191018 -179.999952  -4.448011   9.583063   4.988889  -4.716077   0.141035   3.115389 -27.794075   8.574372 -37.035480 179.999809 -62.621607 179.999601  -5.622051 -10.611818  10.355924  -5.953258 -15.303491 -19.062705  26.310142  -0.000107   0.000002  -4.480646  -4.604484   6.562714 -15.230682  -0.000039  -0.000008 -26.643593   6.429440  22.941182  44.715043   0.000068   0.000028 -16.168669   6.165086  -2.486409   1.251827  -0.000011   0.000001
 -2.277337   0.853620   4.008625  -2.364322 -16.081148  -6.524409  11.500486   4.488450  -2.423642   1.759931   2.369543   0.546189  -0.390443   2.649260   2.685961  -2.561583   5.894711  -3.309483 -15.244841  15.563871  43.883921 -179.999246  55.291748 -179.999979  -4.446057   9.577544   4.996621  -4.739425   0.141398   3.188141 -27.856663   8.622454 -36.975470 179.999874 -62.656685 179.999659  -5.629882 -10.606624  10.363170  -5.981015 -15.275127 -19.026812  26.370150  -0.000106   0.000010  -4.538617  -4.603962   6.565264 -15.205554  -0.000042  -0.000006 -26.609824   6.419606  22.969136  44.628585   0.000090   0.000033 -16.109870   6.192092  -2.477703   1.255285  -0.000010   0.000001
 -2.277988   0.853892   4.008184  -2.339306 -16.137352  -6.483116  11.554247   4.506792  -2.446826   1.751652   2.389922   0.536022  -0.400874   2.676562   2.678489  -2.563592   5.894899  -3.395766 -15.322390  15.565783  43.812070 -179.999255  55.398745 179.999990  -4.475011   9.563395   5.020258  -4.769251   0.143072   3.269500 -28.009344   8.733938 -36.872246 179.999877 -62.685519 179.999654  -5.664581 -10.587001  10.338727  -6.069306 -15.245089 -19.023073  26.430005  -0.000116   0.000000  -4.557079  -4.576457   6.562249 -15.215891  -0.000029  -0.000004 -26.553737   6.446149  22.970063  44.446206   0.000166   0.000082 -15.990414   6.242639  -2.504517   1.253647  -0.000008   0.000001
